<svg height="511pt" viewBox="0 0 511 511.99986" width="511pt" xmlns="http://www.w3.org/2000/svg"><path d="m44.886719 467.519531c-5.855469-5.855469-5.855469-15.347656 0-21.203125l43.601562-43.605468c5.855469-5.855469 15.351563-5.855469 21.207031 0 5.855469 5.859374 5.855469 15.351562 0 21.207031l-43.601562 43.601562c-5.855469 5.855469-15.351562 5.855469-21.207031 0zm0 0" fill="#2d5078"/><path d="m192.300781 320.105469c-27.121093-27.121094-27.121093-71.253907 0-98.375l16.84375-16.839844c27.121094-27.125 71.25-27.125 98.375 0 27.121094 27.121094 27.121094 71.25 0 98.375l-16.84375 16.839844c-27.121093 27.125-71.253906 27.121093-98.375 0zm0 0" fill="#5877a6"/><path d="m307.519531 204.890625-115.21875 115.214844c27.121094 27.125 71.253907 27.125 98.375 0l16.84375-16.839844c27.121094-27.125 27.121094-71.253906 0-98.375zm0 0" fill="#28415e"/><path d="m318.640625 288.726562c15.257813-26.578124 11.5625-61.15625-11.121094-83.835937-22.6875-22.6875-57.261719-26.382813-83.839843-11.125zm0 0" fill="#ffd236"/><path d="m271.160156 241.246094 47.480469 47.480468c15.257813-26.578124 11.5625-61.152343-11.121094-83.835937zm0 0" fill="#ffb500"/><path d="m88.488281 423.917969c-34.464843-34.46875-34.464843-90.550781 0-125.015625 34.46875-34.46875 90.550781-34.46875 125.019531 0 34.46875 34.464844 34.464844 90.546875 0 125.015625-34.46875 34.46875-90.550781 34.46875-125.019531 0zm0 0" fill="#5877a6"/><path d="m213.507812 423.917969c34.464844-34.46875 34.46875-90.550781 0-125.015625l-125.019531 125.015625c34.46875 34.46875 90.550781 34.46875 125.019531 0zm0 0" fill="#28415e"/><path d="m113.371094 281.414062 117.621094 117.621094c8.648437-18.433594 10.589843-39.261718 5.816406-58.765625 13.5625.90625 27.335937-2.121093 39.445312-9.105469l-95.011718-95.011718c-6.984376 12.109375-10.003907 25.882812-9.101563 39.445312-19.503906-4.773437-40.332031-2.832031-58.769531 5.816406zm0 0" fill="#ffd236"/><path d="m236.8125 340.269531c13.558594.90625 27.332031-2.121093 39.441406-9.105469l-47.503906-47.507812-56.566406 56.566406 58.808594 58.8125c8.648437-18.433594 10.589843-39.261718 5.820312-58.765625zm0 0" fill="#ffb500"/><path d="m70.976562 323.839844c-15.34375 32.761718-9.507812 73.058594 17.511719 100.078125s67.320313 32.855469 100.078125 17.511719zm0 0" fill="#ffd236"/><path d="m88.488281 423.917969c27.019531 27.019531 67.320313 32.855469 100.078125 17.511719l-58.796875-58.792969zm0 0" fill="#ffb500"/><path d="m320.871094 133.324219c-3.941406-3.9375-5.519532-9.929688-3.5625-15.546875l17.390625-49.898438c2.722656-7.820312 11.273437-11.949218 19.09375-9.226562 7.820312 2.726562 11.949219 11.273437 9.222656 19.09375l-17.386719 49.902344c-2.726562 7.820312-11.273437 11.949218-19.09375 9.222656-2.207031-.765625-4.117187-1.996094-5.664062-3.546875zm0 0" fill="#5877a6"/><path d="m379.199219 191.652344c-1.546875-1.546875-2.777344-3.457032-3.546875-5.660156-2.726563-7.820313 1.40625-16.371094 9.222656-19.09375l49.902344-17.390626c7.820312-2.726562 16.367187 1.402344 19.09375 9.226563 2.726562 7.820313-1.40625 16.367187-9.222656 19.09375l-49.902344 17.386719c-5.613282 1.957031-11.605469.378906-15.546875-3.5625zm0 0" fill="#28415e"/><path d="m381.453125 130.953125c-24.011719-24.007813-62.933594-24.007813-86.945313 0-24.007812 24.007813-24.007812 62.933594 0 86.941406 24.011719 24.011719 62.933594 24.011719 86.945313 0 24.007813-24.007812 24.007813-62.933593 0-86.941406zm0 0" fill="#ffd236"/><path d="m381.457031 130.953125-86.945312 86.941406c24.007812 24.011719 62.933593 24.011719 86.945312 0 24.007813-24.007812 24.007813-62.933593 0-86.941406zm0 0" fill="#ffb500"/><path d="m428.480469 512c-29.035157 0-57.308594-15.054688-72.839844-41.953125-19.207031-33.269531-58.09375-219.480469-64.171875-249.085937-.152344-.742188 5-14.5625 5-14.5625l15.390625-5.898438s169.484375 151.5 189.171875 185.601562c11.210938 19.417969 14.191406 42.039063 8.386719 63.699219-5.800781 21.65625-19.691407 39.757813-39.109375 50.96875-13.183594 7.613281-27.601563 11.230469-41.828125 11.230469zm0 0" fill="#aecef2"/><path d="m291.46875 220.933594c-25.558594-5.246094-215.289062-44.789063-249.015625-64.257813-40.082031-23.144531-53.867187-74.582031-30.722656-114.667969 11.210937-19.417968 29.3125-33.308593 50.96875-39.113281 21.660156-5.800781 44.28125-2.8242185 63.699219 8.386719 32.332031 18.667969 172.121093 174.328125 185.460937 189.222656 0 0-20.105469 20.488282-20.390625 20.429688zm0 0" fill="#dfeefa"/></svg>