<?xml version="1.0" standalone="no"?>
<!DOCTYPE svg PUBLIC "-//W3C//DTD SVG 1.1//EN"
"http://www.w3.org/Graphics/SVG/1.1/DTD/svg11.dtd">




<svg width="12in" height="12in" version="1.1"
     viewBox="0 0 1200 1200"  bugbug="set viewBox values correctly"
     xmlns="http://www.w3.org/2000/svg"
     xmlns:xlink="http://www.w3.org/1999/xlink">

  <defs>

    <rect id="sq" width="100" height="100"
	  style="
		 stroke: black;
		 stroke-width: 3;
		 fill: none;
		 "
	  />    
    
    <pattern id="gridPattern" x="50" y="50" width="100" height="100"      patternUnits="userSpaceOnUse" >
      <use xlink:href="#sq" />      
    </pattern>

    <path id="rebel" d="M0,0 h10 z h-10 z v10 z v-10 z" style="fill:none; stroke:black; stroke-width:3" />

    <path id="exit" d="M0,-20 h20 v40 h-40 v-40 z" style="fill:none; stroke: black; stroke-width:3" />

    <g id="ayvex"  >
      <path d="
	       m0,-15
	       l15,-20 l15,20 m0,-10
	       m-8,-10 l15,20 l15,-20 l-27,36 m27,-36
	       m0,0
	       l15,20 l15,-20 
	       h15 m-15,10 h15 m-15,10 h15 m0,-10 
	       m0,-10 l20,20 m0,-20 l-20,20
	       "
	    style="fill:none; stroke: black; stroke-width:4" />
      <text  y="-8" style="font: 0.1in serif; fill:gray;" >Light Industries, LLC</text>
    </g>
  </defs>


<!-- units are hundredths of inches -->


<xrect id="paper"
      x="10" y="10" width="1180" height="1180"
      style="stroke-width: 2;
	     stroke: blue;
	     fill: none;
	     "/>

<g id="extras">
  <use xlink:href="#ayvex" x="1025" y="1195"/>

  <text x="50" y="1180"
	style="fill:black;
	       font:italic 25px arial;
	       ">
    https://www.BlackLodgeResearch.org/
  </text>

  <text x="570" y="640" style="
			       font: 12 arial;
			       fill:black;
			       stroke:none;
			       stroke-width:0">
    Hnefatafl
  </text>

</g>
  
<rect id="grid"
      x="50" y="50" width="1100" height="1100"
      style="
	     fill: none;
	     xxfill: url(#gridPattern);
	     stroke-width:3;
	     stroke: black;
	     "
      />


<path id="vertGrid" style="stroke:black; stroke-width:3; fill:pink"
      d="m150,50  v1100 m100,0 v-1100
	 m100,0   v1100 m100,0 v-1100   m100,0 v1100 m100,0 v-1100
	 m100,0   v1100 m100,0 v-1100   m100,0 v1100 m100,0 v-1100
"  x="100" y="100"
      />

<path id="horizGrid" style="stroke:black; stroke-width:3; fill:pink"
      d="m50,150  h1100 m0,100 h-1100
	 m0,100   h1100 m0,100 h-1100   m0,100 h1100 m0,100 h-1100
	 m0,100   h1100 m0,100 h-1100   m0,100 h1100 m0,100 h-1100
"  x="100" y="100"
   />


<g style="fill:none; stroke:black; stroke-width:3" >
  <circle id="crown" r="20" cx="600" cy="600" style="stroke-width:3"/>
  <circle id="king"  r="10" cx="600" cy="600" />
  <circle r="10" cx="500" cy="600" />
  <circle r="10" cx="400" cy="600" />

  <circle r="10" cx="700" cy="600" />
  <circle r="10" cx="800" cy="600" />

  <circle r="10" cx="600" cy="700" />
  <circle r="10" cx="600" cy="800" />

  <circle r="10" cx="600" cy="400" />
  <circle r="10" cx="600" cy="500" />

  <circle r="10" cx="500" cy="500" />
  <circle r="10" cx="700" cy="700" />

  <circle r="10" cx="500" cy="700" />
  <circle r="10" cx="700" cy="500" />

  

  <use xlink:href="#rebel" x="1100" y="400"/>
  <use xlink:href="#rebel" x="1100" y="500"/>
  <use xlink:href="#rebel" x="1100" y="600"/>
  <use xlink:href="#rebel" x="1100" y="700"/>
  <use xlink:href="#rebel" x="1100" y="800"/>
  <use xlink:href="#rebel" x="1000" y="600"/>

  
  <use xlink:href="#rebel" x="100" y="400"/>
  <use xlink:href="#rebel" x="100" y="500"/>
  <use xlink:href="#rebel" x="100" y="600"/>
  <use xlink:href="#rebel" x="100" y="700"/>
  <use xlink:href="#rebel" x="100" y="800"/>
  <use xlink:href="#rebel" x="200" y="600"/>

  
  <use xlink:href="#rebel" x="400" y="100"/>
  <use xlink:href="#rebel" x="500" y="100"/>
  <use xlink:href="#rebel" x="600" y="100"/>
  <use xlink:href="#rebel" x="700" y="100"/>
  <use xlink:href="#rebel" x="800" y="100"/>
  <use xlink:href="#rebel" x="600" y="200"/>

  
  <use xlink:href="#rebel" x="400" y="1100"/>
  <use xlink:href="#rebel" x="500" y="1100"/>
  <use xlink:href="#rebel" x="600" y="1100"/>
  <use xlink:href="#rebel" x="700" y="1100"/>
  <use xlink:href="#rebel" x="800" y="1100"/>
  <use xlink:href="#rebel" x="600" y="1000"/>

  

  <use xlink:href="#exit" x="100" y="100"/>
  <use xlink:href="#exit" x="1100" y="100" />
  <use xlink:href="#exit" x="100" y="1100"/>
  <use xlink:href="#exit" x="1100" y="1100" />
  
</g>




</svg>
